TITLE ""
FILE "P1Q_t_0539-0548.mp3" MP3
  TRACK 01 AUDIO
    TITLE "P1Q_t_0539-0548_01"
    INDEX 01 00:00:00
  TRACK 02 AUDIO
    TITLE "P1Q_t_0539-0548_02"
    INDEX 01 00:01:25
  TRACK 03 AUDIO
    TITLE "P1Q_t_0539-0548_03"
    INDEX 01 00:01:47
  TRACK 04 AUDIO
    TITLE "P1Q_t_0539-0548_04"
    INDEX 01 00:04:51
  TRACK 05 AUDIO
    TITLE "P1Q_t_0539-0548_05"
    INDEX 01 00:04:71
  TRACK 06 AUDIO
    TITLE "P1Q_t_0539-0548_06"
    INDEX 01 00:10:09
  TRACK 07 AUDIO
    TITLE "P1Q_t_0539-0548_07"
    INDEX 01 00:10:54
  TRACK 08 AUDIO
    TITLE "P1Q_t_0539-0548_08"
    INDEX 01 00:11:67
  TRACK 09 AUDIO
    TITLE "P1Q_t_0539-0548_09"
    INDEX 01 00:12:15
  TRACK 10 AUDIO
    TITLE "P1Q_t_0539-0548_10"
    INDEX 01 00:15:47
  TRACK 11 AUDIO
    TITLE "P1Q_t_0539-0548_11"
    INDEX 01 00:15:69
  TRACK 12 AUDIO
    TITLE "P1Q_t_0539-0548_12"
    INDEX 01 00:20:46
  TRACK 13 AUDIO
    TITLE "P1Q_t_0539-0548_13"
    INDEX 01 00:21:16
  TRACK 14 AUDIO
    TITLE "P1Q_t_0539-0548_14"
    INDEX 01 00:22:33
  TRACK 15 AUDIO
    TITLE "P1Q_t_0539-0548_15"
    INDEX 01 00:22:53
  TRACK 16 AUDIO
    TITLE "P1Q_t_0539-0548_16"
    INDEX 01 00:25:28
  TRACK 17 AUDIO
    TITLE "P1Q_t_0539-0548_17"
    INDEX 01 00:25:47
  TRACK 18 AUDIO
    TITLE "P1Q_t_0539-0548_18"
    INDEX 01 00:29:35
  TRACK 19 AUDIO
    TITLE "P1Q_t_0539-0548_19"
    INDEX 01 00:30:06
  TRACK 20 AUDIO
    TITLE "P1Q_t_0539-0548_20"
    INDEX 01 00:31:30
  TRACK 21 AUDIO
    TITLE "P1Q_t_0539-0548_21"
    INDEX 01 00:31:56
  TRACK 22 AUDIO
    TITLE "P1Q_t_0539-0548_22"
    INDEX 01 00:33:72
  TRACK 23 AUDIO
    TITLE "P1Q_t_0539-0548_23"
    INDEX 01 00:34:17
  TRACK 24 AUDIO
    TITLE "P1Q_t_0539-0548_24"
    INDEX 01 00:38:32
  TRACK 25 AUDIO
    TITLE "P1Q_t_0539-0548_25"
    INDEX 01 00:39:04
  TRACK 26 AUDIO
    TITLE "P1Q_t_0539-0548_26"
    INDEX 01 00:40:33
  TRACK 27 AUDIO
    TITLE "P1Q_t_0539-0548_27"
    INDEX 01 00:40:55
  TRACK 28 AUDIO
    TITLE "P1Q_t_0539-0548_28"
    INDEX 01 00:44:39
  TRACK 29 AUDIO
    TITLE "P1Q_t_0539-0548_29"
    INDEX 01 00:44:60
  TRACK 30 AUDIO
    TITLE "P1Q_t_0539-0548_30"
    INDEX 01 00:49:32
  TRACK 31 AUDIO
    TITLE "P1Q_t_0539-0548_31"
    INDEX 01 00:50:06
  TRACK 32 AUDIO
    TITLE "P1Q_t_0539-0548_32"
    INDEX 01 00:51:31
  TRACK 33 AUDIO
    TITLE "P1Q_t_0539-0548_33"
    INDEX 01 00:51:53
  TRACK 34 AUDIO
    TITLE "P1Q_t_0539-0548_34"
    INDEX 01 00:55:37
  TRACK 35 AUDIO
    TITLE "P1Q_t_0539-0548_35"
    INDEX 01 00:55:56
  TRACK 36 AUDIO
    TITLE "P1Q_t_0539-0548_36"
    INDEX 01 00:59:64
  TRACK 37 AUDIO
    TITLE "P1Q_t_0539-0548_37"
    INDEX 01 01:00:38
  TRACK 38 AUDIO
    TITLE "P1Q_t_0539-0548_38"
    INDEX 01 01:01:73
  TRACK 39 AUDIO
    TITLE "P1Q_t_0539-0548_39"
    INDEX 01 01:02:19
  TRACK 40 AUDIO
    TITLE "P1Q_t_0539-0548_40"
    INDEX 01 01:04:75
  TRACK 41 AUDIO
    TITLE "P1Q_t_0539-0548_41"
    INDEX 01 01:05:22
  TRACK 42 AUDIO
    TITLE "P1Q_t_0539-0548_42"
    INDEX 01 01:10:23
  TRACK 43 AUDIO
    TITLE "P1Q_t_0539-0548_43"
    INDEX 01 01:10:70
  TRACK 44 AUDIO
    TITLE "P1Q_t_0539-0548_44"
    INDEX 01 01:12:22
  TRACK 45 AUDIO
    TITLE "P1Q_t_0539-0548_45"
    INDEX 01 01:12:45
  TRACK 46 AUDIO
    TITLE "P1Q_t_0539-0548_46"
    INDEX 01 01:15:34
  TRACK 47 AUDIO
    TITLE "P1Q_t_0539-0548_47"
    INDEX 01 01:15:53
  TRACK 48 AUDIO
    TITLE "P1Q_t_0539-0548_48"
    INDEX 01 01:20:66
  TRACK 49 AUDIO
    TITLE "P1Q_t_0539-0548_49"
    INDEX 01 01:21:36
  TRACK 50 AUDIO
    TITLE "P1Q_t_0539-0548_50"
    INDEX 01 01:22:36
  TRACK 51 AUDIO
    TITLE "P1Q_t_0539-0548_51"
    INDEX 01 01:22:57
  TRACK 52 AUDIO
    TITLE "P1Q_t_0539-0548_52"
    INDEX 01 01:24:66
  TRACK 53 AUDIO
    TITLE "P1Q_t_0539-0548_53"
    INDEX 01 01:25:10
  TRACK 54 AUDIO
    TITLE "P1Q_t_0539-0548_54"
    INDEX 01 01:29:30
  TRACK 55 AUDIO
    TITLE "P1Q_t_0539-0548_55"
    INDEX 01 01:29:75
  TRACK 56 AUDIO
    TITLE "P1Q_t_0539-0548_56"
    INDEX 01 01:31:01
  TRACK 57 AUDIO
    TITLE "P1Q_t_0539-0548_57"
    INDEX 01 01:31:23
  TRACK 58 AUDIO
    TITLE "P1Q_t_0539-0548_58"
    INDEX 01 01:34:15
  TRACK 59 AUDIO
    TITLE "P1Q_t_0539-0548_59"
    INDEX 01 01:34:37
  TRACK 60 AUDIO
    TITLE "P1Q_t_0539-0548_60"
    INDEX 01 01:39:01
